<?xml version="1.0" standalone="no"?>
<!DOCTYPE svg PUBLIC "-//W3C//DTD SVG 20010904//EN"
 "http://www.w3.org/TR/2001/REC-SVG-20010904/DTD/svg10.dtd">
<svg version="1.0" xmlns="http://www.w3.org/2000/svg"
 width="920.000000pt" height="781.000000pt" viewBox="0 0 920.000000 781.000000"
 preserveAspectRatio="xMidYMid meet">

<g transform="translate(0.000000,781.000000) scale(0.100000,-0.100000)"
fill="#000000" stroke="none">
<path d="M4735 7800 c-155 -14 -274 -98 -350 -250 l-34 -67 -53 -2 c-113 -2
-274 -65 -396 -155 l-60 -45 -74 19 c-123 32 -178 35 -229 12 -119 -54 -299
-326 -299 -452 0 -62 21 -148 56 -230 l26 -59 -60 -59 c-74 -73 -140 -157
-148 -186 -3 -14 -30 -34 -80 -60 -42 -21 -78 -45 -81 -53 -3 -8 5 -40 17 -71
20 -48 24 -84 30 -232 5 -128 13 -199 29 -265 31 -126 108 -280 174 -351 53
-57 54 -58 84 -45 29 12 34 10 92 -33 74 -54 100 -64 115 -43 9 12 32 -23 116
-180 58 -107 119 -211 136 -231 l31 -37 -93 3 c-83 3 -101 0 -147 -21 -64 -29
-97 -26 -316 28 -80 19 -166 35 -191 35 l-46 0 -44 93 c-57 117 -157 267 -254
379 -123 143 -284 355 -367 483 -200 308 -294 416 -420 479 -40 20 -80 36 -90
36 -10 0 -53 23 -96 51 -218 142 -504 242 -739 256 -125 8 -125 7 -37 -117 18
-23 17 -24 -2 -16 -11 5 -89 32 -173 61 -180 62 -301 87 -395 83 l-69 -3 41
-60 c22 -33 90 -116 151 -185 99 -111 312 -357 376 -434 13 -15 24 -38 24 -50
0 -27 41 -93 98 -159 23 -27 42 -50 42 -52 0 -2 -25 3 -55 11 -31 8 -79 14
-108 13 -35 -1 -110 13 -232 45 -196 51 -353 81 -503 95 -140 13 -144 9 -83
-83 96 -143 264 -301 463 -433 81 -53 128 -91 128 -101 0 -10 9 -35 21 -57 67
-128 197 -194 719 -370 511 -172 810 -287 1040 -398 63 -31 156 -70 206 -86
90 -30 128 -37 359 -66 138 -17 456 -74 625 -111 154 -35 267 -71 290 -94 10
-10 40 -84 66 -165 54 -167 93 -239 147 -275 30 -19 37 -29 33 -46 -3 -11 -10
-75 -16 -140 -24 -266 29 -556 134 -734 36 -62 45 -88 51 -145 18 -183 72
-370 150 -525 60 -118 77 -138 190 -228 167 -133 181 -154 191 -296 5 -68 1
-103 -25 -218 -47 -208 -62 -321 -62 -452 0 -99 3 -124 21 -158 11 -21 36 -89
56 -151 77 -238 170 -360 218 -284 24 37 45 127 59 247 12 113 13 114 26 80
30 -74 144 -295 180 -349 51 -75 116 -133 144 -129 15 2 29 18 44 49 26 54 53
226 53 338 0 44 4 81 9 81 5 0 13 9 16 20 12 38 34 20 86 -72 106 -190 189
-293 228 -286 43 8 70 139 71 336 0 110 1 114 30 150 16 20 36 53 44 73 l15
36 53 -18 c81 -28 191 -25 254 6 125 62 234 202 329 420 94 218 98 227 148
329 53 110 118 214 183 294 48 59 70 120 80 221 6 63 9 69 61 123 94 99 128
212 95 314 -12 36 -9 55 42 257 31 120 54 223 50 228 -16 27 -159 -8 -276 -67
l-67 -34 -12 38 c-19 58 -74 163 -109 207 -20 25 -30 47 -27 60 3 11 15 63 28
115 31 132 31 354 1 488 -45 196 -195 436 -310 496 -56 29 -73 10 -97 -110
-14 -63 -52 -162 -71 -183 -8 -8 -85 73 -129 134 -80 113 -156 299 -155 379 1
14 23 37 63 68 34 26 108 89 164 140 230 210 284 256 375 320 l95 66 144 -9
c372 -23 521 -54 945 -195 234 -78 283 -86 345 -55 l44 22 165 -36 c289 -63
500 -91 513 -67 20 32 -74 121 -254 240 -80 53 -155 103 -167 109 l-21 13 23
23 24 24 143 -13 c79 -7 213 -13 297 -13 130 -1 154 1 159 15 22 58 -199 192
-502 303 -44 17 -75 30 -70 31 6 0 60 5 120 10 119 12 185 26 185 40 0 17 -63
71 -128 110 -89 52 -249 114 -375 146 -56 14 -138 43 -182 65 -104 52 -182 65
-295 49 -70 -9 -107 -9 -210 4 -226 29 -562 14 -862 -39 -109 -19 -172 -59
-590 -373 l-177 -133 -74 9 c-40 5 -95 6 -122 2 -28 -4 -51 -7 -52 -6 0 0 14
55 34 121 113 393 141 557 113 662 -34 126 -127 331 -234 516 l-56 97 -4 167
c-3 93 -10 185 -16 205 -12 43 -73 100 -170 160 -62 39 -68 45 -105 127 -73
158 -215 350 -287 387 -45 23 -114 42 -177 49 -112 12 -137 12 -216 5z m313
-63 c116 -32 274 -246 383 -517 25 -63 50 -113 55 -110 5 3 8 27 6 54 l-4 48
47 -33 c112 -81 118 -89 126 -170 4 -41 8 -107 8 -148 1 -71 0 -73 -17 -58
-47 43 -38 7 29 -120 201 -383 264 -521 289 -636 13 -62 -4 -176 -65 -415 -85
-332 -215 -682 -278 -751 -21 -22 -220 -161 -232 -161 -3 0 17 45 45 100 47
95 51 127 9 78 -81 -97 -210 -383 -305 -678 -36 -113 -70 -215 -75 -227 -11
-31 -103 -88 -170 -107 -129 -37 -564 -62 -655 -37 -95 26 -128 109 -164 419
-25 220 -71 393 -111 417 -20 13 -21 -4 -5 -51 9 -26 16 -52 16 -56 0 -5 -26
24 -59 64 -32 40 -78 88 -103 106 -39 29 -61 62 -159 245 -63 116 -126 233
-141 261 -36 66 -36 91 1 104 26 9 34 5 99 -52 154 -132 313 -341 416 -543
l26 -53 -25 0 c-17 0 -25 -5 -25 -17 0 -29 58 -144 101 -201 l40 -52 -7 -102
c-6 -84 -9 -97 -18 -77 -10 24 -10 24 -14 -9 -2 -18 2 -58 8 -89 15 -68 48
-106 111 -124 63 -19 314 -16 407 5 131 29 232 97 277 185 23 48 87 238 125
376 26 93 51 146 130 270 156 247 148 214 186 801 6 94 8 103 39 139 l32 39
44 -14 c24 -8 66 -29 93 -47 52 -36 56 -37 56 -24 0 45 -143 131 -217 131 -40
0 -44 -2 -38 -20 7 -23 -53 -104 -162 -218 l-58 -62 -55 6 c-30 4 -111 14
-180 24 -102 14 -131 15 -156 5 -17 -7 -95 -56 -174 -109 -81 -54 -155 -96
-169 -97 -50 -2 -97 2 -211 18 -73 11 -180 17 -290 17 -163 -1 -183 -3 -295
-32 -83 -21 -156 -49 -238 -90 l-118 -59 -43 56 c-117 153 -176 342 -176 567
l0 84 25 -6 c25 -6 24 -4 -25 97 l-51 104 32 27 c17 14 69 43 115 64 46 20 84
41 84 46 0 4 -14 8 -30 8 -29 0 -30 2 -19 23 15 27 192 205 313 312 130 116
75 110 -65 -7 -32 -26 -62 -48 -67 -48 -16 0 -72 185 -72 240 0 62 37 147 114
263 97 145 125 167 209 167 33 0 89 -5 124 -11 l63 -11 -21 -30 c-12 -16 -19
-32 -15 -35 3 -3 66 35 140 84 74 50 167 104 208 121 67 28 212 61 222 51 2
-2 -5 -38 -16 -79 -21 -80 -29 -228 -13 -232 5 -2 19 49 31 112 56 291 167
458 331 500 55 14 327 5 391 -13z m-4523 -1232 c139 -32 282 -80 400 -132 96
-42 104 -48 199 -149 l99 -105 -24 -51 c-43 -93 -174 -198 -245 -198 -27 0
-42 12 -110 92 -44 51 -140 160 -214 243 -178 196 -280 315 -280 326 0 10 51
3 175 -26z m548 -5 c142 -24 309 -77 444 -140 103 -49 233 -128 233 -143 0 -5
-12 -34 -27 -65 -38 -78 -124 -164 -187 -185 -76 -26 -99 -22 -137 21 -18 20
-133 144 -256 275 -122 131 -223 243 -223 248 0 13 24 11 153 -11z m807 -328
c108 -61 255 -230 418 -477 58 -88 193 -270 300 -405 245 -308 283 -367 363
-567 37 -94 39 -97 51 -85 5 5 5 25 -1 50 l-9 42 37 0 c20 0 83 -12 141 -26
196 -47 343 -67 420 -56 51 8 58 24 14 33 -27 5 -25 6 18 13 35 6 71 3 130
-10 82 -19 82 -19 138 -85 108 -130 117 -152 135 -339 19 -192 35 -272 69
-338 39 -77 81 -108 168 -122 94 -16 337 -7 516 19 110 17 144 26 201 56 101
53 117 74 156 206 67 227 200 556 232 575 95 58 254 167 277 190 35 35 94 156
150 307 l42 112 52 8 c37 6 84 4 153 -7 114 -18 189 -21 189 -6 0 6 -6 10 -12
10 -7 1 -26 7 -42 13 l-30 13 227 168 c125 92 269 195 320 229 100 68 96 67
402 109 94 12 375 15 775 6 209 -5 241 -8 291 -27 109 -42 179 -127 179 -217
l0 -46 -155 3 c-96 2 -155 0 -155 -6 1 -19 55 -26 252 -34 223 -8 237 -13 269
-87 25 -56 35 -157 20 -212 -7 -23 -25 -57 -40 -75 l-29 -31 -36 19 c-23 13
-37 29 -42 48 -12 57 -114 109 -299 152 -150 35 -165 38 -165 27 0 -12 34 -25
216 -82 72 -22 148 -52 169 -67 l38 -26 -6 -76 c-8 -120 -64 -228 -139 -267
-51 -27 -104 -16 -362 70 -365 123 -579 167 -875 182 l-134 7 51 44 c55 48
128 140 118 150 -3 4 -16 -3 -29 -14 -105 -96 -275 -234 -341 -278 -45 -29
-140 -107 -211 -172 -288 -262 -417 -363 -533 -416 -45 -21 -46 -22 -18 -25
31 -4 102 19 154 50 l32 20 0 -27 c0 -74 65 -234 138 -343 23 -33 82 -103 131
-157 49 -53 107 -122 127 -153 41 -61 104 -197 104 -224 0 -9 5 -20 12 -24 8
-5 10 10 5 56 -7 77 -64 198 -132 280 -25 30 -44 57 -42 60 28 48 63 140 80
211 12 49 27 89 33 89 19 0 113 -100 160 -171 59 -90 109 -198 136 -294 29
-109 32 -349 5 -475 -10 -47 -21 -88 -25 -92 -13 -13 -60 40 -83 91 -47 111
-163 166 -349 166 -97 0 -109 -2 -152 -27 -25 -16 -64 -50 -85 -76 -21 -27
-56 -57 -77 -68 -22 -10 -66 -43 -98 -73 -63 -58 -100 -124 -139 -251 -13 -41
-24 -77 -25 -78 -7 -11 -38 22 -82 88 -70 105 -116 156 -168 186 -35 20 -47
24 -58 15 -37 -31 -69 -150 -81 -306 -6 -71 -14 -101 -36 -140 -43 -79 -59
-147 -59 -260 0 -104 19 -203 57 -295 12 -31 17 -64 15 -107 l-3 -63 -107 0
c-277 0 -506 102 -727 324 -166 166 -278 329 -335 484 -55 151 -73 266 -72
462 0 96 4 197 9 223 l8 48 95 4 c96 3 277 36 308 55 12 8 -14 9 -98 4 -218
-14 -333 -11 -364 9 -36 24 -82 126 -148 322 -27 83 -60 169 -74 192 -41 71
-149 151 -172 128 -3 -3 11 -20 32 -37 41 -34 116 -124 116 -139 0 -5 -10 -4
-22 2 -97 52 -555 144 -942 190 -226 26 -261 36 -461 131 -270 128 -673 281
-1138 433 -304 99 -471 175 -555 251 -63 56 -108 129 -65 106 64 -36 184 174
187 328 0 36 -3 78 -7 94 l-8 28 48 -6 c126 -17 145 -25 218 -95 39 -37 85
-78 104 -90 61 -43 30 2 -93 135 -106 115 -216 255 -216 274 0 4 17 10 39 13
21 2 55 13 76 23 54 25 152 119 185 177 l27 48 69 -76 c38 -42 76 -96 85 -120
19 -49 44 -88 106 -162 38 -45 43 -57 43 -100 0 -56 43 -153 85 -193 35 -33
32 -12 -10 85 -51 118 -47 129 23 62 63 -60 147 -117 171 -117 8 0 -58 71
-146 158 -170 166 -248 266 -222 283 8 5 23 9 35 9 11 0 48 14 82 31 78 38
150 117 188 203 32 74 33 74 114 28z m-1700 -432 c190 -28 436 -80 577 -121
55 -16 73 -26 77 -43 12 -44 5 -146 -14 -207 -22 -72 -74 -167 -95 -175 -22
-9 -161 69 -269 150 -137 103 -406 372 -406 406 0 5 12 7 28 5 15 -2 61 -9
102 -15z m5136 -117 c-29 -461 -32 -485 -73 -566 -13 -27 -26 -47 -28 -45 -2
2 8 43 23 91 l26 88 -13 172 c-19 246 -18 261 26 313 19 24 37 44 40 44 3 0 2
-44 -1 -97z m3114 66 c165 -45 297 -100 397 -167 38 -25 50 -38 41 -44 -7 -4
-79 -8 -159 -8 -113 0 -149 3 -158 14 -13 15 -85 36 -124 36 -22 0 -25 5 -30
49 -5 40 -20 85 -45 134 -5 10 -7 10 78 -14z m-3641 -151 c-1 -35 -4 -74 -8
-88 -7 -24 -9 -22 -49 37 l-42 62 37 26 c57 38 63 34 62 -37z m402 -23 c-23
-52 -32 -51 -61 6 l-20 39 24 0 c13 0 34 9 47 19 23 19 24 19 27 1 2 -11 -6
-40 -17 -65z m-1145 -103 c12 -4 50 -45 85 -91 35 -47 72 -89 82 -95 24 -14
40 7 67 90 18 54 25 64 45 64 20 0 24 -8 35 -62 6 -35 21 -85 31 -113 10 -27
19 -51 19 -51 0 -1 -17 -5 -37 -9 -89 -16 -187 -98 -231 -193 -23 -50 -27 -70
-27 -159 0 -55 -3 -99 -6 -97 -4 2 -23 38 -42 79 -66 138 -181 301 -351 493
-50 57 -92 107 -94 111 -2 7 38 18 123 35 33 6 278 4 301 -2z m197 -12 c17 0
18 -4 12 -37 -6 -35 -31 -93 -39 -93 -6 0 -86 128 -86 136 0 4 21 4 46 0 26
-3 56 -6 67 -6z m4514 -68 c137 -55 349 -176 383 -217 14 -18 9 -18 -158 -11
-228 8 -348 17 -362 26 -9 6 -9 13 -1 29 14 25 17 118 7 178 l-8 43 44 -14
c23 -7 66 -23 95 -34z m-5303 -33 c3 -17 6 -47 6 -65 l0 -34 -27 17 c-16 9
-41 28 -56 42 l-28 25 43 23 c55 28 54 29 62 -8z m1668 -109 c49 -17 90 -35
92 -38 2 -4 -11 -54 -30 -112 -18 -58 -33 -114 -33 -126 -1 -37 -12 -33 -63
19 -47 50 -50 51 -64 33 -16 -22 -19 -119 -5 -179 9 -37 7 -42 -40 -100 -56
-70 -107 -164 -174 -325 -34 -81 -51 -110 -58 -103 -30 30 -57 2 -57 -60 0
-17 -9 -32 -23 -42 -65 -42 -220 -60 -297 -34 -25 9 -40 23 -55 53 -11 22 -32
56 -47 75 -49 63 -88 179 -103 312 -32 270 -15 368 79 463 66 66 142 96 243
96 102 0 110 -7 73 -62 -17 -25 -39 -69 -51 -99 -20 -55 -39 -192 -23 -178 4
4 18 44 31 90 54 189 137 289 281 344 26 9 68 12 137 9 82 -3 116 -9 187 -36z
m3390 -161 c181 -102 438 -289 438 -319 0 -4 -39 -1 -87 7 -120 18 -517 93
-521 98 -2 2 8 21 22 42 28 41 66 149 66 189 0 13 2 24 4 24 2 0 37 -19 78
-41z m-3422 -140 c28 -40 29 -42 12 -67 -9 -15 -24 -32 -32 -39 -12 -9 -16 -8
-22 10 -10 35 -9 137 2 137 5 0 23 -18 40 -41z m-61 -206 c-5 -16 -27 -93 -50
-173 -47 -168 -89 -272 -124 -315 l-25 -30 -24 29 -24 28 25 62 c51 125 135
293 180 359 25 37 47 67 49 67 1 0 -2 -12 -7 -27z m-913 -26 c7 -7 14 -43 16
-80 4 -67 4 -68 -14 -45 -19 25 -51 89 -63 127 -7 22 -5 23 21 17 16 -4 34
-13 40 -19z m95 -369 c30 -60 31 -63 15 -93 -9 -16 -22 -48 -29 -70 -13 -38
-14 -39 -26 -17 -9 16 -10 54 -5 132 4 61 8 110 10 110 2 0 18 -28 35 -62z
m558 -97 c17 -21 31 -42 31 -45 0 -3 -18 -15 -40 -26 l-40 -20 0 65 c0 36 4
65 9 65 5 0 23 -18 40 -39z m-469 -70 c12 -29 19 -56 16 -58 -2 -3 -25 -1 -50
2 -54 8 -58 23 -25 95 23 51 26 48 59 -39z m390 -10 c0 -24 -11 -27 -120 -41
-127 -15 -217 -13 -224 5 -7 18 -6 18 70 4 68 -13 166 1 224 31 46 23 50 24
50 1z m1902 -770 c87 -33 118 -78 163 -230 24 -83 45 -104 45 -46 0 31 2 35
14 26 27 -22 97 -139 132 -218 l34 -78 -38 -32 c-20 -17 -55 -36 -77 -43 -22
-6 -55 -20 -73 -31 -18 -10 -35 -19 -36 -19 -2 0 -7 17 -11 37 -11 60 -52 129
-98 168 l-44 37 -5 138 c-5 144 -23 211 -59 218 -53 10 -309 -233 -309 -294 0
-6 -14 -17 -30 -24 -17 -7 -49 -27 -71 -45 -44 -34 -129 -149 -129 -173 0 -9
-16 0 -41 22 -22 20 -51 42 -65 48 -30 14 -30 30 -3 110 42 122 95 210 151
250 l29 20 -26 -50 c-15 -28 -25 -61 -23 -74 3 -20 9 -14 42 37 89 137 108
165 147 209 22 25 55 50 72 56 57 17 245 6 309 -19z m-48 -143 c3 -13 6 -83 6
-157 0 -73 5 -197 11 -276 13 -171 5 -201 -65 -235 -59 -28 -113 -26 -176 8
-67 34 -109 104 -117 189 -11 129 105 332 260 454 56 45 72 48 81 17z m-984
-118 c28 -15 142 -165 199 -262 62 -105 112 -226 114 -278 3 -74 -71 -121
-198 -127 -70 -3 -85 -1 -120 19 -64 38 -79 89 -79 278 0 149 8 213 40 328 16
56 16 57 44 42z m615 -235 c-43 -141 12 -292 126 -349 71 -35 146 -36 215 -1
84 43 89 57 87 219 l-2 139 29 -28 c104 -100 101 -272 -10 -553 -28 -73 -50
-138 -47 -145 2 -6 18 9 34 36 68 105 143 320 143 407 0 40 14 57 66 83 l31
16 -14 -42 c-41 -118 29 -275 143 -323 74 -31 179 -11 238 44 l29 27 -5 -45
c-7 -60 -27 -102 -85 -173 -117 -143 -151 -190 -160 -222 -17 -54 3 -52 38 5
17 27 32 50 35 50 6 0 -8 -61 -27 -118 -10 -30 -36 -75 -57 -100 -87 -104
-120 -164 -252 -457 -164 -364 -240 -478 -361 -541 -47 -25 -65 -29 -140 -29
-80 0 -91 3 -170 42 -60 30 -103 61 -152 110 -82 81 -100 110 -171 278 -30 72
-91 200 -136 284 -45 85 -89 173 -97 195 -25 70 -43 184 -43 273 0 71 2 84 15
80 28 -11 24 11 -20 109 -77 172 -92 314 -49 464 l18 65 17 -89 c16 -78 23
-94 56 -128 67 -68 160 -82 285 -42 59 19 125 81 133 126 7 38 -23 145 -62
221 -13 27 -22 51 -20 53 6 6 94 -62 123 -94 87 -102 115 -277 77 -494 -17
-99 -13 -129 12 -94 26 34 49 167 49 276 1 115 -14 193 -49 257 l-23 41 32 63
c27 56 121 168 131 157 2 -2 -2 -26 -10 -53z m1145 27 c0 -4 -18 -70 -40 -147
-22 -77 -49 -183 -60 -235 -23 -112 -48 -144 -124 -155 -72 -11 -113 1 -160
49 -68 67 -95 179 -61 245 37 73 196 184 328 231 53 19 117 26 117 12z m-2775
-624 c187 -188 405 -300 639 -329 54 -6 128 -9 166 -6 l67 6 6 -92 c3 -51 12
-112 20 -137 l13 -45 -95 -103 c-105 -113 -122 -122 -231 -122 -122 0 -143 13
-283 173 -31 36 -108 109 -171 161 -102 85 -117 103 -154 174 -75 144 -147
357 -167 497 l-7 49 65 -79 c35 -44 95 -110 132 -147z m1142 -1073 c68 -165
97 -217 158 -283 43 -46 117 -106 174 -139 7 -4 -47 -110 -73 -140 -68 -81
-333 -98 -370 -24 -7 14 -28 88 -46 164 -17 75 -36 137 -41 137 -27 0 5 -214
46 -306 29 -66 19 -89 -50 -124 -42 -21 -64 -25 -140 -25 -155 0 -187 41 -205
256 -6 67 -13 125 -16 128 -16 17 -25 -36 -21 -141 3 -114 3 -117 -20 -127
-65 -30 -204 3 -259 60 l-29 30 2 122 c2 142 22 291 60 432 19 71 26 126 27
192 l1 93 30 -29 c59 -57 110 -75 210 -75 129 -1 148 9 255 125 l93 100 85
-158 c46 -87 105 -207 129 -268z m-791 -657 c37 -16 67 -22 122 -21 48 1 72
-3 72 -11 0 -6 -7 -54 -15 -106 -16 -104 -45 -202 -63 -208 -13 -4 -55 60 -90
138 -20 46 -82 216 -82 227 0 6 7 3 56 -19z m1044 -41 c0 -73 -16 -215 -31
-271 l-10 -38 -26 23 c-29 27 -124 166 -172 250 l-31 56 92 5 c51 3 109 12
128 21 19 8 38 16 43 16 4 1 7 -27 7 -62z m-414 -142 c-7 -107 -29 -234 -46
-265 -6 -11 -17 -20 -24 -20 -35 0 -201 243 -230 337 -7 21 -5 21 26 12 53
-15 158 -10 213 10 28 10 54 19 59 20 5 0 6 -39 2 -94z"/>
<path d="M4940 7169 c-74 -43 -110 -132 -110 -270 0 -85 27 -254 49 -312 8
-20 8 -40 0 -72 -14 -57 -8 -72 34 -80 36 -7 53 -27 138 -156 37 -56 81 -92
131 -104 30 -8 122 16 153 39 33 24 13 26 -50 5 -66 -22 -93 -19 -142 14 -43
29 -42 38 3 26 69 -20 137 25 171 111 13 34 17 82 19 195 2 93 8 163 16 183
12 32 12 35 -19 60 -17 15 -37 45 -43 67 -42 132 -115 240 -194 286 -60 34
-107 37 -156 8z m150 -54 c73 -47 153 -199 186 -353 17 -84 25 -243 14 -307
l-6 -40 -8 30 c-10 33 -43 75 -61 75 -8 0 -10 23 -7 78 8 147 -36 261 -116
298 -32 15 -44 28 -58 64 -25 64 -62 110 -96 117 -24 5 -26 8 -16 21 45 54
102 60 168 17z m-142 -71 c58 -40 97 -191 73 -280 -23 -84 -83 -96 -125 -24
-29 49 -31 251 -3 293 20 31 25 32 55 11z m-23 -407 c19 -109 84 -179 170
-181 l45 -1 0 -38 c0 -21 9 -56 20 -77 18 -34 18 -40 5 -40 -29 0 -91 38 -128
79 -56 62 -137 238 -137 298 0 30 19 1 25 -40z m308 -169 c40 -53 20 -170 -25
-153 -37 15 -58 134 -29 169 17 21 29 17 54 -16z"/>
<path d="M5600 7041 c-9 -34 -8 -53 5 -97 8 -30 20 -54 25 -54 12 0 2 170 -11
184 -4 5 -13 -10 -19 -33z"/>
<path d="M4250 6892 c0 -7 12 -15 26 -18 14 -4 59 -29 101 -56 90 -59 141 -81
180 -76 40 4 35 22 -9 29 -21 3 -59 20 -85 37 -109 71 -135 84 -173 89 -26 4
-40 2 -40 -5z"/>
<path d="M4045 6540 c-49 -10 -95 -27 -95 -36 0 -3 56 -3 125 1 l125 7 33 -34
c17 -19 52 -76 77 -126 61 -127 78 -120 29 13 -34 90 -77 155 -114 171 -37 15
-115 17 -180 4z"/>
<path d="M4052 6390 c-44 -27 -74 -95 -70 -158 4 -57 19 -61 30 -7 4 22 10 51
13 63 3 13 26 46 52 73 36 38 42 49 27 49 -11 0 -34 -9 -52 -20z"/>
<path d="M3080 6162 c14 -9 48 -38 76 -64 28 -27 54 -48 57 -48 20 0 1 36 -41
80 -40 41 -54 50 -83 49 l-34 0 25 -17z"/>
<path d="M5778 4043 c-25 -27 -63 -75 -86 -108 -49 -74 -177 -198 -256 -251
l-60 -39 -227 0 c-296 0 -318 -13 -59 -35 205 -17 258 -14 327 20 79 40 196
141 256 221 118 160 167 227 167 233 0 15 -19 2 -62 -41z"/>
<path d="M6090 2196 c0 -20 80 -166 91 -166 23 0 2 64 -44 132 -33 49 -47 59
-47 34z"/>
<path d="M6656 2128 c-12 -80 -16 -158 -8 -158 17 0 32 52 32 115 0 69 -16 97
-24 43z"/>
</g>
</svg>
